# AST/ASF file generated using VICON BodyLanguage
# -----------------------------------------------
:version 1.10
:name VICON
:units
  mass 1.0
  length 0.45
  angle deg
:documentation
   .ast/.asf automatically generated from VICON data using
   VICON BodyBuilder and BodyLanguage model FoxedUp or BRILLIANT.MOD
:root
   order TX TY TZ RX RY RZ
   axis XYZ
   position 0 0 0  
   orientation 0 0 0 
:bonedata
  begin
     id 1 
     name lhipjoint
     direction 0.541323 -0.757556 0.364798 
     length 2.47576 
     axis 0 0 0  XYZ
  end
  begin
     id 2 
     name lfemur
     direction 0.34202 -0.939693 0  
     length 7.46493  
     axis 0 0 20  XYZ
    dof rx ry rz
    limits (-160.0 20.0)
           (-70.0 70.0)
           (-60.0 70.0)
  end
  begin
     id 3 
     name ltibia
     direction 0.34202 -0.939693 0   
     length 7.73805   
     axis 0 0 20   XYZ
    dof rx
    limits (-10.0 170.0)
  end
  begin
     id 4 
     name lfoot
     direction 0.107174 -0.294458 0.949636   
     length 2.25864   
     axis -90 7.62852e-016 20   XYZ
    dof rx rz
    limits (-45.0 90.0)
           (-70.0 20.0)
  end
  begin
     id 5 
     name ltoes
     direction 1.53606e-011 -4.21934e-011 1   
     length 1.12451   
     axis -90 7.62852e-016 20   XYZ
    dof rx
    limits (-90.0 20.0)
  end
  begin
     id 6 
     name rhipjoint
     direction -0.524745 -0.766967 0.36933   
     length 2.44538  
     axis 0 0 0  XYZ 
  end
  begin
     id 7 
     name rfemur
     direction -0.34202 -0.939693 0   
     length 7.61604   
     axis 0 0 -20   XYZ
    dof rx ry rz
    limits (-160.0 20.0)
           (-70.0 70.0)
           (-70.0 60.0)
  end
  begin
     id 8 
     name rtibia
     direction -0.34202 -0.939693 0   
     length 7.61056   
     axis 0 0 -20   XYZ
    dof rx
    limits (-10.0 170.0)
 end
 begin
     id 9 
     name rfoot
     direction -0.12616 -0.346623 0.929482   
     length 2.46372  
     axis -90 -7.62852e-016 -20   XYZ
    dof rx rz
    limits (-45.0 90.0)
           (-20.0 70.0)
  end
  begin
     id 10 
     name rtoes
     direction -1.53531e-011 -4.22004e-011 1   
     length 1.21611   
     axis -90 -7.62852e-016 -20   XYZ
    dof rx
    limits (-90.0 20.0)
  end
  begin
     id 11 
     name lowerback
     direction -0.000778023 0.997293 -0.0735223   
     length 2.06139   
     axis 0 0 0   XYZ
    dof rx ry rz
    limits (-20.0 45.0)
           (-30.0 30.0)
           (-30.0 30.0)
  end
  begin
     id 12 
     name upperback
     direction 0.0222598 0.999722 -0.0078355   
     length 2.06383   
     axis 0 0 0   XYZ
    dof rx ry rz
    limits (-20.0 45.0)
           (-30.0 30.0)
           (-30.0 30.0)
  end
  begin
     id 13 
     name thorax
     direction 0.0219654 0.999405 0.0265994   
     length 2.07163   
     axis 0 0 0   XYZ
    dof rx ry rz
    limits (-20.0 45.0)
           (-30.0 30.0)
           (-30.0 30.0)
  end
  begin
     id 14 
     name lowerneck
     direction 0.0213282 0.988147 0.15202   
     length 1.75969   
     axis 0 0 0   XYZ
    dof rx ry rz
    limits (-20.0 45.0)
           (-30.0 30.0)
           (-30.0 30.0)
  end
  begin
     id 15 
     name upperneck
     direction -0.0546456 0.982624 -0.177379   
     length 1.79244   
     axis 0 0 0   XYZ
    dof rx ry rz
    limits (-20.0 45.0)
           (-30.0 30.0)
           (-30.0 30.0)
  end
  begin
     id 16
     name head
     direction -0.0199987 0.996855 -0.076686  
     length 1.80555  
     axis 0 0 0   XYZ
    dof rx ry rz
    limits (-20.0 45.0)
           (-30.0 30.0)
           (-30.0 30.0)
  end
  begin
     id 17 
     name lclavicle
     direction 0.929565 0.363219 -0.063096  
     length 3.55722  
     axis 0 0 0   XYZ
    dof ry rz
    limits (-20.0 10.0)
           (0.0 20.0)
  end
  begin
     id 18 
     name lhumerus
     direction 1 -4.48993e-011 -2.36203e-027   
     length 4.92785   
     axis 180 -30 -90   XYZ
    dof rx ry rz
    limits (-60.0 90.0)
           (-90.0 90.0)
           (-90.0 90.0)
  end
  begin
     id 19
     name lradius
     direction 1 -4.48947e-011 2.02997e-027   
     length 3.44052   
     axis 180 -30 -90   XYZ
    dof rx
    limits (-10.0 170.0)
  end
  begin
     id 20
     name lwrist
     direction 1 -4.48962e-011 1.45991e-027   
     length 1.72026   
     axis 1.49639e-024 90 90   XYZ
    dof ry
    limits (-180.0 0.0)
 end
  begin
     id 21 
     name lhand
     direction 1 -4.48984e-011 2.91906e-027   
     length 0.654326   
     axis -1.863e-015 90 90   XYZ
    dof rx rz
    limits (-90.0 90.0)
           (-45.0 45.0)
  end
  begin
     id 22 
     name lfingers
     direction 1 -4.48961e-011 5.83968e-027   
     length 0.527534   
     axis -3.72598e-015 90 90   XYZ
    dof rx
    limits (0.0 90.0)
  end
  begin
     id 23
     name lthumb
     direction 0.707107 -6.34963e-011 0.707107   
     length 0.757437   
     axis -90 45 -6.68868e-015   XYZ
    dof rx rz
    limits (-45.0 45.0)
           (-45.0 45.0)
  end
  begin
     id 24 
     name rclavicle
     direction -0.902944 0.422599 -0.0781198   
     length 3.54432  
     axis 0 0 0   XYZ 
    dof ry rz
    limits (-10.0 20.0)
           (-20.0 0.0)
  end
  begin
     id 25 
     name rhumerus
     direction -1 -4.48953e-011 -4.75835e-028  
     length 5.09181   
     axis 180 30 90   XYZ
    dof rx ry rz
    limits (-90.0 60.0)
           (-90.0 90.0)
           (-90.0 90.0)
  end
  begin
     id 26 
     name rradius
     direction -1 -4.48986e-011 -3.25889e-027   
     length 3.49865   
     axis 180 30 90   XYZ
    dof rx
    limits (-10.0 170.0)
  end
  begin
     id 27 
     name rwrist
     direction -1 -4.48963e-011 1.45989e-027   
     length 1.74933   
     axis 1.49639e-024 -90 -90   XYZ
    dof ry
    limits (-180.0 0.0)
  end
  begin
     id 28
     name rhand
     direction -1 -4.49003e-011 2.91844e-027   
     length 0.66641   
     axis -1.863e-015 -90 -90   XYZ
    dof rx rz
    limits (-90.0 90.0)
           (-45.0 45.0)
  end
  begin
     id 29
     name rfingers
     direction -1 -4.48973e-011 5.83886e-027   
     length 0.537277   
     axis -3.72598e-015 -90 -90   XYZ
    dof rx
    limits (0.0 90.0)
  end
  begin
     id 30
     name rthumb
     direction -0.707107 -6.34976e-011 0.707107   
     length 0.771425   
     axis -90 -45 6.68868e-015   XYZ
    dof rx rz
    limits (-45.0 45.0)
           (-45.0 45.0)
  end
:hierarchy
  begin
    root lhipjoint rhipjoint lowerback
    lhipjoint lfemur
    lfemur ltibia
    ltibia lfoot
    lfoot ltoes
    rhipjoint rfemur
    rfemur rtibia
    rtibia rfoot
    rfoot rtoes
    lowerback upperback
    upperback thorax
    thorax lowerneck lclavicle rclavicle
    lowerneck upperneck
    upperneck head
    lclavicle lhumerus
    lhumerus lradius
    lradius lwrist
    lwrist lhand lthumb
    lhand lfingers
    rclavicle rhumerus
    rhumerus rradius
    rradius rwrist
    rwrist rhand rthumb
    rhand rfingers
  end

#!OML:ASF H:\LiuWeirdWalks\Patient Classification 1\Patient 1\Session 1\male.ASF
:FULLY-SPECIFIED
:DEGREES
106
root 0.166991 17.9887 -31.5797 2.40036 3.02049 -2.45588
lowerback 3.02721 -0.576671 -0.589247
upperback -2.47225 -0.669335 3.34783
thorax -4.20608 -0.261135 3.84346
lowerneck -19.4361 2.02721 5.83291
upperneck 25.988 3.10417 -7.16646
head 11.9701 1.04221 -3.18957
rclavicle 1.19395e-014 -3.65764e-014
rhumerus -39.5921 -12.1231 -68.9397
rradius 28.3619
rwrist -3.51045
rhand -15.6088 -2.11254
rfingers 7.12502
rthumb 10.5775 -31.8264
lclavicle 1.19395e-014 -3.65764e-014
lhumerus -42.9418 7.60442 78.9976
lradius 32.9268
lwrist 5.35421
lhand -10.457 1.82169
lfingers 7.12502
lthumb 15.5436 31.217
rfemur -8.62483 -1.76781 22.2599
rtibia 27.8724
rfoot -13.4925 -20.0922
rtoes -2.8661
lfemur -8.10726 -2.13027 -19.1137
ltibia 25.3535
lfoot -11.7619 14.8356
ltoes -7.18207
107
root 0.174202 17.9879 -31.5765 2.40899 3.02859 -2.43209
lowerback 3.03889 -0.596638 -0.629549
upperback -2.47429 -0.697662 3.354
thorax -4.21237 -0.273854 3.87482
lowerneck -19.4277 2.02559 5.78945
upperneck 26.0088 3.1131 -7.15074
head 11.9762 1.04391 -3.17523
rclavicle -1.27968e-015 2.3059e-014
rhumerus -39.5974 -12.0443 -68.9688
rradius 28.3951
rwrist -3.61275
rhand -15.6621 -2.20947
rfingers 7.12502
rthumb 10.5261 -31.9259
lclavicle -1.27968e-015 2.3059e-014
lhumerus -42.9566 7.64675 78.9847
lradius 32.8959
lwrist 5.34956
lhand -10.4779 1.823
lfingers 7.12502
lthumb 15.5234 31.2199
rfemur -8.63567 -1.77147 22.2094
rtibia 27.9059
rfoot -13.5203 -20.1066
rtoes -2.85933
lfemur -8.09574 -2.14401 -19.1665
ltibia 25.3421
lfoot -11.7691 14.8418
ltoes -7.16311
108
root 0.181779 17.9873 -31.5726 2.42731 3.02938 -2.38965
lowerback 3.03511 -0.622063 -0.687102
upperback -2.48013 -0.734253 3.36037
thorax -4.213 -0.290211 3.91648
lowerneck -19.4053 2.02372 5.72591
upperneck 26.0299 3.1284 -7.13289
head 11.9798 1.04694 -3.15557
rclavicle 3.01904e-015 7.95139e-016
rhumerus -39.5942 -11.9334 -69.0101
rradius 28.4322
rwrist -3.74608
rhand -15.7408 -2.36246
rfingers 7.12502
rthumb 10.4502 -32.0827
lclavicle 3.01904e-015 7.95139e-016
lhumerus -42.9756 7.7184 78.9641
lradius 32.8526
lwrist 5.31848
lhand -10.4968 1.81477
lfingers 7.12502
lthumb 15.5052 31.2131
rfemur -8.65663 -1.78482 22.1344
rtibia 27.945
rfoot -13.5576 -20.1041
rtoes -2.85053
lfemur -8.08418 -2.16104 -19.2434
ltibia 25.32
lfoot -11.7702 14.8587
ltoes -7.15473
109
root 0.189657 17.9868 -31.5683 2.45541 3.03546 -2.33839
lowerback 3.03085 -0.663388 -0.759767
upperback -2.47977 -0.792494 3.38115
thorax -4.20491 -0.316863 3.98303
lowerneck -19.4317 2.07523 5.731
upperneck 26.0426 3.22014 -7.19946
head 11.9989 1.07934 -3.16763
rclavicle 3.72721e-017 4.77083e-015
rhumerus -39.5305 -11.7947 -69.0574
rradius 28.4486
rwrist -3.87829
rhand -15.8296 -2.5487
rfingers 7.12502
rthumb 10.3646 -32.2733
lclavicle 3.72721e-017 4.77083e-015
lhumerus -42.9743 7.85371 78.9444
lradius 32.7996
lwrist 5.26909
lhand -10.5065 1.79965
lfingers 7.12502
lthumb 15.4959 31.1987
rfemur -8.68576 -1.80956 22.0482
rtibia 27.9843
rfoot -13.5973 -20.0938
rtoes -2.84136
lfemur -8.07894 -2.18129 -19.331
ltibia 25.293
lfoot -11.769 14.8753
ltoes -7.1492
110
root 0.197284 17.9862 -31.5633 2.47716 3.05082 -2.30427
lowerback 3.02445 -0.688775 -0.809509
upperback -2.49807 -0.828375 3.38719
thorax -4.21698 -0.332803 4.02006
lowerneck -19.3693 2.08057 5.71475
upperneck 26.0307 3.24266 -7.22314
head 11.9837 1.08581 -3.16973
rclavicle -1.34925e-014 -1.98785e-014
rhumerus -39.5432 -11.7111 -69.0877
rradius 28.4699
rwrist -3.99153
rhand -15.9002 -2.70338
rfingers 7.12502
rthumb 10.2964 -32.4313
lclavicle -1.34925e-014 -1.98785e-014
lhumerus -42.9887 7.89918 78.9252
lradius 32.736
lwrist 5.22331
lhand -10.5206 1.7939
lfingers 7.12502
lthumb 15.4823 31.194
rfemur -8.70007 -1.82766 21.9843
rtibia 28.016
rfoot -13.6449 -20.0971
rtoes -2.81946
lfemur -8.0683 -2.20015 -19.3969
ltibia 25.2706
lfoot -11.7754 14.8834
ltoes -7.14153
111
root 0.205025 17.9856 -31.5579 2.49775 3.06025 -2.28273
lowerback 3.01008 -0.707256 -0.847503
upperback -2.50349 -0.854782 3.39381
thorax -4.21191 -0.344742 4.05002
lowerneck -19.3258 2.086 5.7062
upperneck 26.0049 3.26099 -7.24676
head 11.9667 1.09091 -3.17348
rclavicle 4.01297e-015 -3.97569e-015
rhumerus -39.5451 -11.6637 -69.1046
rradius 28.479
rwrist -4.05537
rhand -15.922 -2.76961
rfingers 7.12502
rthumb 10.2754 -32.4986
lclavicle 4.01297e-015 -3.97569e-015
lhumerus -42.9649 7.9259 78.9155
lradius 32.6603
lwrist 5.18767
lhand -10.5393 1.81516
lfingers 7.12502
lthumb 15.4642 31.2166
rfemur -8.7068 -1.83887 21.934
rtibia 28.0347
rfoot -13.6843 -20.0999
rtoes -2.79834
lfemur -8.06173 -2.21559 -19.4498
ltibia 25.2608
lfoot -11.793 14.896
ltoes -7.13057
112
root 0.212989 17.9848 -31.5518 2.50707 3.04846 -2.29238
lowerback 2.98458 -0.706541 -0.849483
upperback -2.48744 -0.854396 3.39789
thorax -4.18068 -0.345059 4.05452
lowerneck -19.3173 2.0808 5.70102
upperneck 25.9849 3.25613 -7.25243
head 11.9569 1.08765 -3.17494
rclavicle 8.19987e-016 -7.95139e-015
rhumerus -39.5421 -11.6765 -69.1084
rradius 28.4792
rwrist -4.06508
rhand -15.9085 -2.7522
rfingers 7.12502
rthumb 10.2884 -32.4806
lclavicle 8.19987e-016 -7.95139e-015
lhumerus -42.9091 7.91605 78.9146
lradius 32.5885
lwrist 5.1564
lhand -10.5632 1.80193
lfingers 7.12502
lthumb 15.4413 31.2052
rfemur -8.69563 -1.82956 21.9174
rtibia 28.0384
rfoot -13.7147 -20.1012
rtoes -2.78056
lfemur -8.0492 -2.22509 -19.4703
ltibia 25.2679
lfoot -11.8232 14.9264
ltoes -7.12853
113
root 0.22103 17.9838 -31.5458 2.50718 3.01509 -2.33308
lowerback 2.95998 -0.686181 -0.817491
upperback -2.45715 -0.826455 3.39978
thorax -4.13769 -0.332998 4.03547
lowerneck -19.3423 2.06215 5.69263
upperneck 25.9805 3.22506 -7.23412
head 11.9571 1.07479 -3.17143
rclavicle -9.74045e-015 3.65764e-014
rhumerus -39.5456 -11.7409 -69.0987
rradius 28.475
rwrist -4.02056
rhand -15.8506 -2.63837
rfingers 7.12502
rthumb 10.3442 -32.364
lclavicle -9.74045e-015 3.65764e-014
lhumerus -42.8402 7.87142 78.9188
lradius 32.5388
lwrist 5.12326
lhand -10.5878 1.78646
lfingers 7.12502
lthumb 15.4176 31.1915
rfemur -8.67282 -1.79676 21.9349
rtibia 28.0296
rfoot -13.7321 -20.1032
rtoes -2.76648
lfemur -8.03507 -2.22202 -19.4574
ltibia 25.2919
lfoot -11.8648 14.9653
ltoes -7.10081
114
root 0.229104 17.9828 -31.5406 2.51142 2.98201 -2.37839
lowerback 2.93279 -0.663724 -0.780545
upperback -2.41269 -0.795918 3.40037
thorax -4.07873 -0.32016 4.01182
lowerneck -19.4269 2.04802 5.69067
upperneck 26.0089 3.19581 -7.21083
head 11.9824 1.06289 -3.16799
rclavicle 5.59082e-015 -2.78299e-014
rhumerus -39.5168 -11.8301 -69.0954
rradius 28.4625
rwrist -3.96088
rhand -15.7874 -2.5066
rfingers 7.12502
rthumb 10.4052 -32.2291
lclavicle 5.59082e-015 -2.78299e-014
lhumerus -42.7576 7.83058 78.923
lradius 32.5124
lwrist 5.08944
lhand -10.6042 1.74438
lfingers 7.12502
lthumb 15.4018 31.1506
rfemur -8.65567 -1.76482 21.9569
rtibia 28.0129
rfoot -13.7384 -20.1034
rtoes -2.75397
lfemur -8.03709 -2.20989 -19.4387
ltibia 25.3283
lfoot -11.9097 14.9952
ltoes -7.06661
115
root 0.236941 17.9819 -31.5363 2.51987 2.95596 -2.43034
lowerback 2.91316 -0.647241 -0.739269
upperback -2.38284 -0.772614 3.40536
thorax -4.03871 -0.310529 3.99125
lowerneck -19.4671 2.03096 5.67605
upperneck 26.021 3.16516 -7.17879
head 11.9919 1.05108 -3.15864
rclavicle 1.22874e-014 -1.35174e-014
rhumerus -39.5017 -11.9066 -69.0908
rradius 28.4446
rwrist -3.8872
rhand -15.7317 -2.38708
rfingers 7.12502
rthumb 10.459 -32.1069
lclavicle 1.22874e-014 -1.35174e-014
lhumerus -42.7225 7.80309 78.9172
lradius 32.5112
lwrist 5.06743
lhand -10.6133 1.69221
lfingers 7.12502
lthumb 15.3929 31.0992
rfemur -8.64586 -1.73187 21.9882
rtibia 27.9942
rfoot -13.7361 -20.1112
rtoes -2.74508
lfemur -8.05241 -2.19465 -19.41
ltibia 25.3711
lfoot -11.9532 15.0131
ltoes -7.01891
116
root 0.244537 17.981 -31.5325 2.53224 2.95738 -2.46643
lowerback 2.9082 -0.64626 -0.719481
upperback -2.36078 -0.7706 3.41487
thorax -4.01324 -0.310527 3.98935
lowerneck -19.5139 2.02854 5.65316
upperneck 26.0367 3.1581 -7.14617
head 12.0059 1.04896 -3.14399
rclavicle -7.21837e-015 2.62396e-014
rhumerus -39.4813 -11.9548 -69.0874
rradius 28.4263
rwrist -3.81278
rhand -15.6743 -2.26928
rfingers 7.12502
rthumb 10.5143 -31.9863
lclavicle -7.21837e-015 2.62396e-014
lhumerus -42.7153 7.80385 78.91
lradius 32.5373
lwrist 5.05602
lhand -10.6234 1.6666
lfingers 7.12502
lthumb 15.3833 31.0743
rfemur -8.64061 -1.71385 22.0037
rtibia 27.9807
rfoot -13.7372 -20.1293
rtoes -2.74005
lfemur -8.07474 -2.19012 -19.3963
ltibia 25.4103
lfoot -11.9904 15.0139
ltoes -6.97378
